<svg version="1.1" id="Layer_1" xmlns="http://www.w3.org/2000/svg" xmlns:xlink="http://www.w3.org/1999/xlink" x="0px" y="0px"
	 width="100%" viewBox="0 0 598 185" enable-background="new 0 0 598 185" xml:space="preserve">

<path fill="#233319" opacity="1.000000" stroke="none" 
	d="
M421.692780,147.994202 
	C421.691986,152.492935 421.816254,156.499741 421.596954,160.487671 
	C421.546234,161.410446 420.321503,162.268661 419.636993,163.156601 
	C418.948090,162.280579 417.974976,161.497925 417.647980,160.502975 
	C417.302002,159.450134 417.571075,158.195221 417.571106,157.028580 
	C417.572174,120.529114 417.471161,84.029083 417.672943,47.530727 
	C417.707245,41.322151 416.604584,35.766228 413.516052,30.403164 
	C411.133789,26.266493 409.266479,21.833273 406.991669,17.165516 
	C419.483795,17.165516 431.430969,17.165516 443.860535,17.165516 
	C438.089569,22.840273 440.369720,28.953217 443.132446,34.550064 
	C462.574493,73.936958 482.226227,113.220352 501.820679,152.531937 
	C502.324890,153.543503 502.940247,154.499619 503.916077,156.200058 
	C505.070801,153.970535 505.995575,152.295319 506.822174,150.573044 
	C527.478027,107.535492 548.166870,64.513557 568.686462,21.411070 
	C570.273987,18.076391 571.988342,16.667717 575.749573,16.876421 
	C581.824341,17.213495 587.931519,16.967051 595.359802,16.967051 
	C585.880249,21.978218 584.874207,29.819727 584.854187,37.958164 
	C584.785278,65.957611 584.829468,93.957336 584.830261,121.956955 
	C584.830627,135.435150 584.830261,148.913345 584.830261,162.787872 
	C575.693542,162.787872 566.829651,162.787872 557.454712,162.787872 
	C557.454712,127.276947 557.454712,91.879456 557.454712,56.481968 
	C557.146301,56.397579 556.837830,56.313194 556.529419,56.228809 
	C555.712158,57.738220 554.829956,59.216427 554.087219,60.761658 
	C538.377563,93.443001 522.626404,126.104767 507.072235,158.860016 
	C505.466736,162.240952 503.644562,163.527222 499.936188,163.269424 
	C494.960266,162.923508 489.908203,162.822433 484.952698,163.291290 
	C480.674988,163.696014 478.870422,161.734238 477.154480,158.264313 
	C459.901520,123.375526 442.513489,88.553513 425.154236,53.717304 
	C424.379791,52.163101 423.517029,50.652901 421.692871,49.346092 
	C421.692871,82.062538 421.692871,114.778976 421.692780,147.994202 
z"/>


<path fill="#233319" opacity="1.000000" stroke="none" 
	d="
M159.440048,61.064758 
	C159.441498,64.481621 159.441498,67.455757 159.441498,70.429886 
	C159.122177,70.490479 158.802856,70.551071 158.483536,70.611656 
	C157.721695,68.584625 157.012405,66.536018 156.190094,64.533821 
	C145.406876,38.278263 124.805641,24.387255 97.851486,19.139755 
	C81.657822,15.987130 65.627312,16.996391 50.844166,25.326712 
	C42.340725,30.118406 36.265366,37.053558 35.096382,47.145058 
	C33.751663,58.753601 39.951134,66.419724 49.232147,72.024734 
	C61.515903,79.443184 75.478378,82.185860 89.059227,86.040939 
	C104.857330,90.525414 120.771721,94.786652 136.180130,100.396042 
	C147.624115,104.562218 157.449875,111.873405 161.731323,124.116631 
	C166.172897,136.817719 164.247574,149.053177 157.306076,160.471756 
	C156.571777,161.679672 154.887009,162.960953 153.568436,163.045761 
	C148.778351,163.353836 143.956482,163.167282 138.842484,163.167282 
	C139.629944,160.017105 140.562790,157.346008 140.938431,154.598740 
	C142.549667,142.814789 136.833115,134.810715 127.207031,129.083740 
	C114.432350,121.483559 99.961845,118.806061 85.880486,114.918289 
	C70.369858,110.635902 54.971474,105.928329 39.621151,101.097862 
	C36.038174,99.970352 32.735729,97.778511 29.492222,95.772408 
	C3.116931,79.459351 8.271730,43.629120 31.059973,28.191164 
	C49.747700,15.531118 70.871346,12.470387 92.669525,14.782065 
	C103.120110,15.890340 113.309731,19.566202 123.577980,22.231655 
	C127.429474,23.231434 131.115112,24.873867 134.969833,25.856739 
	C144.568954,28.304300 152.769989,26.380312 159.438599,17.652882 
	C159.438599,31.975931 159.438599,46.298981 159.440048,61.064758 
z"/>
<path fill="#233319" opacity="1.000000" stroke="none" 
	d="
M30.466114,163.190308 
	C24.901829,163.190353 19.773205,163.190353 14.349192,163.190353 
	C14.349192,152.124557 14.349192,141.448975 14.349192,130.773392 
	C18.914946,142.612747 24.948784,153.472748 35.048695,162.698166 
	C33.227123,162.914337 32.064449,163.052307 30.466114,163.190308 
z"/>


<path fill="#233319" opacity="1.000000" stroke="none" 
	d="
M333.498230,128.438080 
	C339.168549,139.928284 344.649658,151.094376 350.555847,163.126419 
	C341.492035,163.126419 332.963867,163.204666 324.441986,163.009155 
	C323.559601,162.988922 322.449921,161.478821 321.897247,160.423523 
	C319.274780,155.415939 316.689270,150.381042 314.340271,145.241760 
	C313.246246,142.848175 311.989136,141.794952 309.152405,141.806915 
	C280.657196,141.927292 252.160965,141.824219 223.666412,142.004684 
	C222.062195,142.014847 219.816193,143.592209 218.992035,145.067551 
	C216.239288,149.995438 214.145248,155.288223 211.468979,160.263779 
	C210.680206,161.730225 208.798492,162.608810 207.417648,163.756790 
	C207.005997,163.374573 206.594330,162.992340 206.182678,162.610123 
	C209.664047,155.343506 213.138031,148.073349 216.628021,140.810867 
	C235.792068,100.931419 254.939438,61.043892 274.198669,21.210449 
	C275.005524,19.541628 276.867065,18.382721 278.237244,16.986256 
	C279.483490,18.328930 281.153503,19.467312 281.913727,21.044271 
	C299.105713,56.705143 316.197968,92.414078 333.498230,128.438080 
M269.870300,52.679298 
	C268.800903,50.615013 267.731506,48.550724 266.370209,45.922905 
	C251.480225,77.108414 236.931625,107.578964 222.133362,138.572388 
	C252.300583,138.572388 281.353943,138.572388 311.112946,138.572388 
	C297.317993,109.882988 283.730194,81.624428 269.870300,52.679298 
z"/>


</svg>